<?xml version="1.0" standalone="no"?>
<!DOCTYPE svg PUBLIC "-//W3C//DTD SVG 20010904//EN"
 "http://www.w3.org/TR/2001/REC-SVG-20010904/DTD/svg10.dtd">
<svg version="1.0" xmlns="http://www.w3.org/2000/svg"
 width="323.000000pt" height="323.000000pt" viewBox="0 0 323.000000 323.000000"
 preserveAspectRatio="xMidYMid meet">
<metadata>
Created by potrace 1.14, written by Peter Selinger 2001-2017
</metadata>
<g transform="translate(0.000000,323.000000) scale(0.100000,-0.100000)"
fill="#000000" stroke="none">
<path d="M1425 3219 c-131 -18 -230 -41 -352 -83 -88 -31 -233 -99 -290 -138
-23 -15 -44 -28 -47 -28 -3 0 -35 -23 -72 -50 -334 -250 -549 -588 -635 -1000
-24 -118 -34 -363 -18 -485 33 -262 120 -503 256 -706 79 -119 105 -150 203
-249 251 -254 533 -397 920 -465 68 -12 316 -15 400 -5 121 15 178 26 215 40
14 5 25 8 25 5 0 -9 207 68 287 106 75 37 251 142 263 157 3 4 28 25 55 46 28
22 89 79 136 127 224 226 375 521 435 849 18 95 27 401 14 471 -5 24 -10 58
-13 74 -42 257 -166 533 -334 743 -58 73 -198 210 -271 265 -235 177 -487 282
-770 321 -103 14 -323 17 -407 5z"/>
</g>
</svg>
